<?xml version="1.0" encoding="UTF-8"?>
<svg id="Layer_2" data-name="Layer 2" xmlns="http://www.w3.org/2000/svg" viewBox="0 0 120.43 225.97">
  <g id="OBJECTS">
    <g>
      <path d="M92.83,40.39s-33.15-28.58-66.24,2.02C26.59,42.41,15,.09,59.43,0c41.21-.08,33.4,40.39,33.4,40.39Z" style="fill: #d82e61; stroke-width: 0px;"/>
      <path d="M73.35,137.82s25.98-48.04,27.11-51.49c1.24-3.8,7.94-19.85-.38-48.2-8.32-28.35-19.5-32.9-19.5-32.9,18.29,12.14,7.03,35.56-1.32,50.15-1.56,2.73-3.17,5.43-4.83,8.11C67.04,75.49,0,195.51,0,195.51l19.68,30.46,53.66-88.15Z" style="fill: #f82e6b; stroke-width: 0px;"/>
      <path d="M59.4,89.68c-6.37,11.25-14.02,24.84-21.68,38.48,3.24,6.03,5.63,10.45,5.95,11.04l14.24,23.39,14.53-23.86s3.27-6.05,7.54-14.01c-7.31-12.47-14.52-24.75-20.58-35.04Z" style="fill: #e12e64; stroke-width: 0px;"/>
      <path d="M45.36,137.82s-25.97-48.04-27.1-51.49c-1.25-3.8-7.94-19.85.38-48.2C26.94,9.79,38.13,5.24,38.13,5.24c-18.29,12.14-7.03,35.56,1.32,50.15,1.56,2.73,3.18,5.43,4.83,8.11,7.39,11.99,76.16,129.67,76.16,129.67l-21.41,32.8-53.66-88.15Z" style="fill: #ff4572; stroke-width: 0px;"/>
    </g>
  </g>
</svg>